<?xml version="1.0" standalone="no"?>
<!DOCTYPE svg PUBLIC "-//W3C//DTD SVG 20010904//EN"
 "http://www.w3.org/TR/2001/REC-SVG-20010904/DTD/svg10.dtd">
<svg version="1.0" xmlns="http://www.w3.org/2000/svg"
 width="700.000000pt" height="700.000000pt" viewBox="0 0 700.000000 700.000000"
 preserveAspectRatio="xMidYMid meet">
<metadata>
Created by potrace 1.14, written by Peter Selinger 2001-2017
</metadata>
<g transform="translate(0.000000,700.000000) scale(0.100000,-0.100000)"
fill="#000000" stroke="none">
<path d="M4278 6515 c-2 -1 -34 -5 -73 -9 -230 -19 -498 -97 -729 -212 -356
-178 -649 -450 -854 -792 -56 -93 -142 -262 -142 -279 0 -4 -6 -20 -14 -34
-35 -68 -104 -319 -121 -439 -3 -25 -8 -53 -11 -64 -6 -17 -1 -18 83 -12 194
15 421 1 581 -35 109 -24 145 -34 253 -69 449 -148 851 -463 1105 -867 64
-102 174 -321 174 -346 0 -7 4 -17 9 -23 17 -17 94 -284 106 -371 4 -21 8 -45
10 -53 19 -74 29 -559 12 -577 -18 -17 -529 -7 -579 12 -7 3 -26 7 -43 9 -147
20 -376 96 -550 181 -421 207 -755 541 -960 960 -84 171 -157 389 -181 544 -3
18 -8 43 -10 55 -13 63 -19 183 -18 365 l0 203 -55 -6 c-61 -6 -64 -7 -166
-30 -712 -164 -1294 -699 -1519 -1393 -35 -111 -60 -207 -70 -278 -4 -23 -9
-52 -11 -65 -19 -94 -26 -385 -12 -526 26 -267 124 -573 262 -819 35 -63 143
-227 159 -240 6 -5 24 -28 40 -50 48 -64 229 -245 314 -311 178 -141 399 -265
604 -339 54 -19 108 -37 120 -39 13 -3 57 -14 98 -25 181 -48 482 -69 705 -49
369 33 765 192 1080 435 211 162 432 427 563 673 86 162 164 379 196 540 21
108 28 145 29 162 2 26 19 34 104 47 232 36 496 131 708 256 524 308 873 795
999 1393 31 147 41 245 41 422 0 173 -8 259 -40 425 -39 201 -149 482 -262
665 -169 273 -423 529 -693 697 -184 114 -493 237 -678 269 -12 2 -49 9 -83
14 -33 6 -77 13 -97 16 -43 5 -379 14 -384 9z"/>
</g>
</svg>
