<svg xmlns="http://www.w3.org/2000/svg" viewBox="0 0 1725 300" height="250">
  <path d="m712.779 137.902.132 118.742h11.998l-.132-118.742c-.239-17.601 5.22-34.894 15.744-49.871 17.151-24.139 47.382-38.703 79.811-38.453 46.356-.122 86.022 29.242 93.701 69.365a88.339 88.339 0 0 1 2.051 18.959l.132 118.742h11.998l-.132-118.742c.226-20.277-6.364-40.169-18.944-57.187-19.623-26.231-53.08-41.924-88.817-41.667-52.838-.124-97.783 33.712-105.669 79.554a98.035 98.035 0 0 0-1.873 19.3Zm249.849 118.669h70.308c57.147 0 93.167-21.786 93.167-62.973 0-26.054-16.56-42.968-42.523-49.967a101.873 101.873 0 0 0-12.893-2.56v-1.493c8.425-2.018 16.201-5.677 22.727-10.693 11.243-8.842 17.104-21.516 17.104-36.461 0-32.348-25.993-49.114-68.026-52.056a200.914 200.914 0 0 0-14.058-.473h-65.806v216.676Zm12.814-9.848V145.846h52.992c24.046 0 43.576 3.114 57.81 9.503 17.27 7.076 27.928 22.387 27.044 38.846 0 36.412-32.555 52.528-84.854 52.528h-52.992Zm0-110.725V49.446h47.796c8.84-.065 17.674.432 26.429 1.484 28.918 3.724 44.894 14.782 47.083 36.681.177 1.799.264 3.604.26 5.409 1.035 14.225-7.783 27.632-22.479 34.172-12.198 5.72-29.776 8.806-53.718 8.806h-45.371Zm473.728-83.802h118.859V40.167H1449.17c-20.299-.249-40.21 6.335-57.247 18.929-26.254 19.644-41.965 53.17-41.706 88.999-.125 52.976 33.745 98.075 79.632 106.031a97.987 97.987 0 0 0 19.321 1.9h118.859v-12.03H1449.17c-16.831.204-33.395-4.792-47.941-14.457-23.635-15.85-38.727-44.182-40.18-75.429h206.98v-12.029h-206.98c2.357-45.077 32.216-82.015 71.393-88.319a88.926 88.926 0 0 1 16.728-1.566Zm226.471 204.845h12.268V51.322h73.598V39.569h-159.464v11.753h73.598v205.719Z" style="stroke-width:6px;fill:#1976d2;stroke:#1976d2" transform="translate(-90.967 -.455)"/>
  <path d="m627.373 145.778-36.751-14.392c-15.828-6.207-38.928-14.941-41.76-37.586a37.758 37.758 0 0 1-.287-4.727c0-23.603 22.182-39.147 55.622-39.147 9.324-.041 18.585 1.343 27.356 4.09 11.671 3.741 22.152 9.837 30.584 17.787l7.614-7.198c-6.237-5.913-13.514-10.93-21.559-14.863-8.336-4.082-17.936-7.226-28.669-8.792a105.9 105.9 0 0 0-15.326-1.098c-11.633-.12-23.165 1.881-33.854 5.871-20.882 7.286-34.509 24.94-34.349 44.502-.057 5.379.914 10.729 2.872 15.832 7.197 18.324 26.589 27.666 42.859 34.124 1.088.432 2.178.857 3.269 1.279l36.75 14.393c20.154 7.92 37.545 15.241 42.767 33.642a45.266 45.266 0 0 1 1.599 12.412c.224 17.554-12.324 33.319-31.298 39.323-7.562 2.729-16.322 4.417-26.083 4.877-1.84.085-3.682.129-5.525.128-21.164.032-41.711-6.2-58.258-17.673a93.4 93.4 0 0 1-13.589-11.4l-8.276 7.484c18.21 18.423 44.697 31.664 80.123 31.664 45.358 0 75.156-23.316 75.156-55.267.088-6.072-.921-12.119-2.989-17.92-5.636-15.205-18.687-24.316-34.341-31.582a244.635 244.635 0 0 0-13.657-5.763Z" style="paint-order:stroke;stroke-width:6px;fill:#1976d2;stroke:#1976d2" transform="translate(-90.967 -.455)"/>
  <path d="m1264.808 145.778-36.75-14.392c-15.828-6.207-38.929-14.941-41.76-37.586a37.95 37.95 0 0 1-.288-4.727c0-23.603 22.183-39.147 55.622-39.147 9.325-.041 18.585 1.343 27.357 4.09 11.671 3.741 22.152 9.837 30.583 17.787l7.615-7.198c-6.238-5.913-13.514-10.93-21.559-14.863-8.336-4.082-17.936-7.226-28.669-8.792a105.914 105.914 0 0 0-15.327-1.098c-11.632-.12-23.164 1.881-33.853 5.871-20.882 7.286-34.509 24.94-34.349 44.502-.057 5.379.914 10.729 2.872 15.832 7.196 18.324 26.589 27.666 42.859 34.124 1.088.432 2.177.857 3.269 1.279l36.75 14.393c20.154 7.92 37.545 15.241 42.767 33.642a45.226 45.226 0 0 1 1.598 12.412c.224 17.554-12.323 33.319-31.298 39.323-7.562 2.729-16.321 4.417-26.083 4.877a118.29 118.29 0 0 1-5.524.128c-21.165.032-41.711-6.2-58.258-17.673a93.4 93.4 0 0 1-13.589-11.4l-8.276 7.484c18.21 18.423 44.696 31.664 80.123 31.664 45.358 0 75.156-23.316 75.156-55.267.088-6.072-.922-12.119-2.989-17.92-5.636-15.205-18.687-24.316-34.341-31.582a244.666 244.666 0 0 0-13.658-5.763Z" style="stroke-width:6px;fill:#1976d2;stroke:#1976d2" transform="translate(-90.967 -.455)"/>
  <g stroke-width="17" stroke="transparent">
    <path d="M209.719 200.455c-8.183 68.797-87.772 102.937-143.261 61.451-55.489-41.485-45.26-127.481 18.412-154.793a89.99 89.99 0 0 1 24.849-6.658m0 0c-6.88 57.839 42.161 106.879 100 100" style="fill:#1976d2" transform="translate(24.124 -.455)"/>
    <path d="M109.719 100.455c8.183-68.797 87.772-102.937 143.261-61.452 55.488 41.485 45.26 127.481-18.412 154.793a89.992 89.992 0 0 1-24.849 6.659m0 0c6.879-57.84-42.161-106.88-100-100" style="fill:#1976d2" transform="translate(24.124 -.455)"/>
  </g>
</svg>
